<?xml version="1.0" encoding="utf-8"?>
<!-- Generator: Adobe Illustrator 22.0.0, SVG Export Plug-In . SVG Version: 6.00 Build 0)  -->
<svg version="1.1" id="Capa_1" xmlns="http://www.w3.org/2000/svg" xmlns:xlink="http://www.w3.org/1999/xlink" x="0px" y="0px"
	 viewBox="0 0 36.8 30" style="enable-background:new 0 0 36.8 30;" xml:space="preserve">
<style type="text/css">
	.st0{fill:#A5CC4D;}
</style>
<g>
	<path class="st0" d="M21.4,10.4h-5.7c-0.4,0-0.6-0.3-0.6-0.6V5.4c0-0.4,0.3-0.6,0.6-0.6h5.7C21.7,4.7,22,5,22,5.4v4.3
		C22.1,10,21.8,10.4,21.4,10.4z M16.3,9h4.4V6.1h-4.4V9z"/>
	<path class="st0" d="M21.4,17.7h-5.7c-0.4,0-0.6-0.3-0.6-0.6v-4.3c0-0.4,0.3-0.6,0.6-0.6h5.7c0.4,0,0.6,0.3,0.6,0.6v4.3
		C22.1,17.4,21.8,17.7,21.4,17.7z M16.3,16.3h4.4v-2.9h-4.4V16.3z"/>
	<path class="st0" d="M12.3,17.7H6.5c-0.4,0-0.6-0.3-0.6-0.6v-4.3c0-0.4,0.3-0.6,0.6-0.6h5.7c0.4,0,0.6,0.3,0.6,0.6v4.3
		C12.9,17.4,12.6,17.7,12.3,17.7z M7.3,16.3h4.4v-2.9H7.3V16.3z"/>
	<path class="st0" d="M30.6,17.7H25c-0.4,0-0.6-0.3-0.6-0.6v-4.3c0-0.4,0.3-0.6,0.6-0.6h5.7c0.4,0,0.6,0.3,0.6,0.6v4.3
		C31.3,17.4,31,17.7,30.6,17.7z M25.6,16.3H30v-2.9h-4.4V16.3z"/>
	<path class="st0" d="M12.3,10.4H6.5c-0.4,0-0.6-0.3-0.6-0.6V5.4c0-0.4,0.3-0.6,0.6-0.6h5.7c0.4,0,0.6,0.3,0.6,0.6v4.3
		C12.9,10,12.6,10.4,12.3,10.4z M7.3,9h4.4V6.1H7.3V9z"/>
	<path class="st0" d="M30.9,21h-6.4c-0.4,0-0.7-0.4-0.7-0.7s0.4-0.7,0.7-0.7h6.4c0.4,0,0.7,0.4,0.7,0.7C31.7,20.7,31.3,21,30.9,21z"
		/>
	<path class="st0" d="M21.7,21h-6.4c-0.4,0-0.7-0.4-0.7-0.7s0.4-0.7,0.7-0.7h6.4c0.4,0,0.7,0.4,0.7,0.7C22.5,20.7,22.1,21,21.7,21z"
		/>
	<path class="st0" d="M12.5,21H6.2c-0.4,0-0.7-0.4-0.7-0.7s0.4-0.7,0.7-0.7h6.4c0.4,0,0.7,0.4,0.7,0.7C13.3,20.7,13,21,12.5,21z"/>
	<path class="st0" d="M35.7,0.2H1.4c-0.6,0-1.2,0.6-1.2,1.3v22.8c0,0.6,0.6,1.2,1.2,1.2h6.2l-0.6,2.9c-0.1,0.4,0,0.7,0.3,1
		c0.3,0.3,0.6,0.5,0.9,0.5h20.4c0.4,0,0.7-0.2,0.9-0.5c0.3-0.3,0.4-0.6,0.3-1l-0.6-2.9h6.2c0.6,0,1.2-0.6,1.2-1.2V1.5
		C37,0.7,36.4,0.2,35.7,0.2L35.7,0.2z M28.1,28.1H9l0.4-2.7h18.4L28.1,28.1z M35.1,23.4h-33V2.3H35L35.1,23.4L35.1,23.4z"/>
	<path class="st0" d="M26.5,9.7c-0.3,0.3-0.3,0.7,0,0.9c0.3,0.3,0.7,0.3,0.9,0c0.1-0.1,0.3-0.2,0.5-0.2s0.4,0.1,0.5,0.2
		c0.1,0.1,0.3,0.2,0.5,0.2c0.2,0,0.4-0.1,0.5-0.2c0.3-0.3,0.3-0.7,0-0.9C28.5,8.9,27.2,8.9,26.5,9.7L26.5,9.7z"/>
	<path class="st0" d="M30.4,9.4c0.2,0,0.4-0.1,0.5-0.2c0.3-0.3,0.3-0.7,0-0.9c-1.7-1.6-4.3-1.6-5.8,0c-0.3,0.3-0.3,0.7,0,0.9
		c0.3,0.3,0.7,0.3,0.9,0c1.1-1.1,2.9-1.1,4,0C30,9.4,30.2,9.4,30.4,9.4L30.4,9.4z"/>
	<path class="st0" d="M24.1,8c0.2,0,0.4-0.1,0.5-0.2c1.9-1.9,4.8-1.9,6.6,0c0.3,0.3,0.7,0.3,0.9,0c0.3-0.3,0.3-0.7,0-0.9
		c-2.3-2.3-6.2-2.3-8.5,0c-0.3,0.3-0.3,0.7,0,0.9C23.8,7.9,23.9,8,24.1,8L24.1,8z"/>
</g>
</svg>
