<?xml version="1.0" encoding="utf-8"?>
<!-- Generator: Adobe Illustrator 22.0.0, SVG Export Plug-In . SVG Version: 6.00 Build 0)  -->
<svg version="1.1" id="Capa_1" xmlns="http://www.w3.org/2000/svg" xmlns:xlink="http://www.w3.org/1999/xlink" x="0px" y="0px"
	 viewBox="0 0 44.8 32" style="enable-background:new 0 0 44.8 32;" xml:space="preserve">
<style type="text/css">
	.st0{fill:#A5CC4D;stroke:#A5CC4D;stroke-width:0.5;stroke-miterlimit:10;}
	.st1{fill:#A5CC4D;}
</style>
<g>
	<path class="st0" d="M44.2,9.4c-5.8-5.8-13.6-9-21.8-9s-16,3.2-21.8,9c-0.3,0.3-0.3,0.8,0,1.1s0.8,0.3,1.1,0C7.3,4.9,14.6,2,22.4,2
		S37.5,5,43,10.5c0.2,0.2,0.4,0.2,0.6,0.2c0.2,0,0.4-0.1,0.6-0.2C44.5,10.2,44.5,9.7,44.2,9.4z"/>
	<path class="st0" d="M5.3,14.1c-0.3,0.3-0.3,0.8,0,1.1c0.2,0.2,0.4,0.2,0.6,0.2s0.4-0.1,0.6-0.2c8.8-8.8,23.1-8.8,31.9,0
		c0.3,0.3,0.8,0.3,1.1,0s0.3-0.8,0-1.1C30.1,4.7,14.7,4.7,5.3,14.1z"/>
	<path class="st0" d="M22.4,13.7c-4.7,0-9.1,1.8-12.4,5.1c-0.3,0.3-0.3,0.8,0,1.1s0.8,0.3,1.1,0c3-3,7-4.7,11.2-4.7S30.7,17,33.7,20
		c0.2,0.2,0.4,0.2,0.6,0.2c0.2,0,0.4-0.1,0.6-0.2c0.3-0.3,0.3-0.8,0-1.1C31.5,15.5,27.1,13.7,22.4,13.7z"/>
	<path class="st1" d="M22.4,21.2c-2.9,0-5.3,2.3-5.3,5.3s2.3,5.3,5.3,5.3c2.9,0,5.3-2.3,5.3-5.3S25.3,21.2,22.4,21.2z"/>
</g>
</svg>
