<?xml version="1.0" encoding="utf-8"?>
<!-- Generator: Adobe Illustrator 22.0.0, SVG Export Plug-In . SVG Version: 6.00 Build 0)  -->
<svg version="1.1" id="Capa_1" xmlns="http://www.w3.org/2000/svg" xmlns:xlink="http://www.w3.org/1999/xlink" x="0px" y="0px"
	 viewBox="0 0 29.5 32" style="enable-background:new 0 0 29.5 32;" xml:space="preserve">
<style type="text/css">
	.st0{fill:#A5CC4D;stroke:#A5CC4D;stroke-width:0.4;stroke-miterlimit:10;}
	.st1{fill:#A5CC4D;}
</style>
<g>
	<g>
		<path class="st0" d="M25.1,12.7c0.2,0,0.5,0,0.7,0c0.2,0,0.5,0,0.7,0c1.6,0,2.6-1.1,2.7-2.7V7.4c0-1-0.3-1.9-1-2.6
			c-1-1.2-2.4-1.9-3.4-2.4c-2.3-1.1-4.8-1.7-7.8-2C13.3,0.1,9.7,0.5,6.2,1.7c-1.3,0.5-3,1.2-4.4,2.4C0.8,5,0.3,6.2,0.3,7.5v0
			c0,0.4,0,0.9,0,1.4c0,0.3,0,0.7,0,1c0,1.6,1.1,2.7,2.7,2.7h4.3c1.6,0,2.6-1.1,2.6-2.7V7.6c0.1,0,0.3-0.1,0.4-0.1
			c0.2-0.1,0.4-0.1,0.6-0.2c1.2-0.3,2.4-0.4,3.8-0.4c0.7,0,1.5,0,2.3,0.1c1.1,0.1,1.9,0.3,2.6,0.6c0,0.6,0,1.2,0,1.7v0.6
			c0,1.6,1.1,2.7,2.7,2.7h2.1C24.6,12.7,24.8,12.7,25.1,12.7L25.1,12.7z M21.1,9.9V9.3c0-0.7,0-1.3,0-1.9v0c0-0.7-0.4-1-0.7-1.1
			c0,0,0,0-0.1,0c-0.9-0.4-1.9-0.6-3.3-0.8c-0.8-0.1-1.6-0.1-2.4-0.1c-1.4,0-2.8,0.1-4.1,0.4c-0.3,0.1-0.5,0.1-0.7,0.2
			C9.6,6,9.5,6.1,9.3,6.1l-0.1,0C8.9,6.2,8.4,6.5,8.4,7.3v2.6c0,0.5-0.2,1.1-1,1.1H3.1c-0.7,0-1.1-0.4-1.1-1.2c0-0.3,0-0.6,0-0.9
			c0-0.5,0-1,0-1.5c0-0.9,0.3-1.5,1-2.2c1.2-1.1,2.7-1.7,3.9-2.1C10,2.1,13.4,1.6,16.8,2c2.9,0.3,5.2,0.8,7.3,1.8
			c1.3,0.6,2.2,1.2,2.8,2c0.4,0.5,0.6,1,0.6,1.6V10c0,0.7-0.4,1.1-1.1,1.1c-0.5,0-0.9,0-1.4,0c-0.2,0-0.5,0-0.7,0h-2.1
			C21.5,11.1,21.1,10.7,21.1,9.9L21.1,9.9z"/>
	</g>
	<path class="st1" d="M14.8,14.3c-1.4,0-2.5,1.1-2.5,2.5s1.1,2.5,2.5,2.5c1.4,0,2.5-1.1,2.5-2.5C17.3,15.4,16.2,14.3,14.8,14.3
		L14.8,14.3z M14.8,17.7c-0.5,0-0.9-0.4-0.9-0.9c0-0.5,0.4-0.9,0.9-0.9c0.5,0,0.9,0.4,0.9,0.9S15.3,17.7,14.8,17.7L14.8,17.7z"/>
	<path class="st1" d="M21.4,14.3c-1.4,0-2.5,1.1-2.5,2.5s1.1,2.5,2.5,2.5c1.4,0,2.5-1.1,2.5-2.5C23.9,15.4,22.8,14.3,21.4,14.3
		L21.4,14.3z M21.4,17.7c-0.5,0-0.9-0.4-0.9-0.9c0-0.5,0.4-0.9,0.9-0.9c0.5,0,0.9,0.4,0.9,0.9S21.9,17.7,21.4,17.7L21.4,17.7z"/>
	<path class="st1" d="M8.3,14.3c-1.4,0-2.5,1.1-2.5,2.5s1.1,2.5,2.5,2.5c1.4,0,2.5-1.1,2.5-2.5C10.7,15.4,9.6,14.3,8.3,14.3
		L8.3,14.3z M8.3,17.7c-0.5,0-0.9-0.4-0.9-0.9c0-0.5,0.4-0.9,0.9-0.9c0.5,0,0.9,0.4,0.9,0.9S8.8,17.7,8.3,17.7L8.3,17.7z"/>
	<path class="st1" d="M14.8,20.6c-1.4,0-2.5,1.1-2.5,2.5s1.1,2.5,2.5,2.5c1.4,0,2.5-1.1,2.5-2.5S16.2,20.6,14.8,20.6L14.8,20.6z
		 M14.8,24c-0.5,0-0.9-0.4-0.9-0.9c0-0.5,0.4-0.9,0.9-0.9c0.5,0,0.9,0.4,0.9,0.9C15.7,23.6,15.3,24,14.8,24L14.8,24z"/>
	<path class="st1" d="M21.4,20.6c-1.4,0-2.5,1.1-2.5,2.5s1.1,2.5,2.5,2.5c1.4,0,2.5-1.1,2.5-2.5S22.8,20.6,21.4,20.6L21.4,20.6z
		 M21.4,24c-0.5,0-0.9-0.4-0.9-0.9c0-0.5,0.4-0.9,0.9-0.9c0.5,0,0.9,0.4,0.9,0.9C22.3,23.6,21.9,24,21.4,24L21.4,24z"/>
	<path class="st1" d="M8.3,20.6c-1.4,0-2.5,1.1-2.5,2.5s1.1,2.5,2.5,2.5c1.4,0,2.5-1.1,2.5-2.5S9.6,20.6,8.3,20.6L8.3,20.6z M8.3,24
		c-0.5,0-0.9-0.4-0.9-0.9c0-0.5,0.4-0.9,0.9-0.9c0.5,0,0.9,0.4,0.9,0.9C9.1,23.6,8.8,24,8.3,24L8.3,24z"/>
	<path class="st1" d="M14.8,26.9c-1.4,0-2.5,1.1-2.5,2.5c0,1.4,1.1,2.5,2.5,2.5c1.4,0,2.5-1.1,2.5-2.5C17.3,28,16.2,26.9,14.8,26.9
		L14.8,26.9z M14.8,30.3c-0.5,0-0.9-0.4-0.9-0.9c0-0.5,0.4-0.9,0.9-0.9c0.5,0,0.9,0.4,0.9,0.9C15.7,29.9,15.3,30.3,14.8,30.3
		L14.8,30.3z"/>
	<path class="st1" d="M21.4,26.9c-1.4,0-2.5,1.1-2.5,2.5c0,1.4,1.1,2.5,2.5,2.5c1.4,0,2.5-1.1,2.5-2.5C23.9,28,22.8,26.9,21.4,26.9
		L21.4,26.9z M21.4,30.3c-0.5,0-0.9-0.4-0.9-0.9c0-0.5,0.4-0.9,0.9-0.9c0.5,0,0.9,0.4,0.9,0.9C22.3,29.9,21.9,30.3,21.4,30.3
		L21.4,30.3z"/>
	<path class="st1" d="M8.3,26.9c-1.4,0-2.5,1.1-2.5,2.5c0,1.4,1.1,2.5,2.5,2.5c1.4,0,2.5-1.1,2.5-2.5C10.7,28,9.6,26.9,8.3,26.9
		L8.3,26.9z M8.3,30.3c-0.5,0-0.9-0.4-0.9-0.9c0-0.5,0.4-0.9,0.9-0.9c0.5,0,0.9,0.4,0.9,0.9C9.1,29.9,8.8,30.3,8.3,30.3L8.3,30.3z"
		/>
</g>
</svg>
