<?xml version="1.0" encoding="utf-8"?>
<!-- Generator: Adobe Illustrator 16.0.0, SVG Export Plug-In . SVG Version: 6.00 Build 0)  -->
<!DOCTYPE svg PUBLIC "-//W3C//DTD SVG 1.1//EN" "http://www.w3.org/Graphics/SVG/1.1/DTD/svg11.dtd">
<svg version="1.1" id="Layer_1" xmlns="http://www.w3.org/2000/svg" xmlns:xlink="http://www.w3.org/1999/xlink" x="0px" y="0px"
	 width="250px" height="104px" viewBox="0 0 250 104" enable-background="new 0 0 250 104" xml:space="preserve">
<g>
	<path fill-rule="evenodd" clip-rule="evenodd" fill="#006433" d="M108.292,95.534c0,2.314,0.356,3.856,1.067,4.51
		c0.713,0.712,2.256,1.011,4.631,1.011h4.866v2.553H90.07v-2.553h3.442c2.552,0,4.155-0.299,4.808-0.95
		c0.653-0.653,0.949-2.196,0.949-4.57V39.507c0-3.442-0.475-5.639-1.364-6.589c-0.95-0.949-3.383-1.365-7.36-1.365h-1.306v-2.552
		l19.053-0.535v12.405c1.425-4.096,3.62-7.301,6.469-9.615c2.908-2.314,6.174-3.501,9.734-3.501c5.638,0,10.624,2.671,15.015,7.894
		c4.392,5.223,6.587,11.515,6.587,18.755c0,7.479-2.253,13.947-6.705,19.35c-4.569,5.4-9.732,8.131-15.609,8.131
		c-6.707,0-11.87-3.562-15.49-10.743V95.534z M107.936,55.472L107.936,55.472c0,7.479,1.484,13.354,4.451,17.627
		c2.968,4.274,6.529,6.411,10.803,6.411c8.368,0,12.522-8.191,12.522-24.394c0-16.56-4.214-24.751-12.642-24.751
		c-4.096,0-7.656,2.315-10.624,6.944C109.479,41.999,107.936,48.052,107.936,55.472L107.936,55.472z M160.995,7.16L160.995,7.16
		h-3.442c0,6.766-1.424,11.988-4.27,15.787c-2.851,3.798-6.83,6.112-12.053,6.885v3.027h10.567V63.96
		c0,6.053,0.949,10.504,2.908,13.295c2.017,2.848,5.341,4.273,10.088,4.273c5.047,0,8.846-1.604,11.397-4.749
		c2.609-3.206,3.857-7.894,3.857-14.125v-3.681l-2.553,1.127v2.791c0,4.747-0.83,8.486-2.552,11.157
		c-1.722,2.73-4.155,4.095-7.242,4.095c-2.552,0-4.331-0.889-5.279-2.611c-0.953-1.779-1.428-4.629-1.428-8.665V32.859h15.491
		v-3.858h-15.491V7.16z M224.443,63.307L224.443,63.307c-0.536,5.875-2.552,10.446-5.995,13.769
		c-3.444,3.323-7.893,4.927-13.352,4.927c-6.769,0-12.465-2.61-17.214-7.894c-4.69-5.282-7.004-11.812-7.004-19.587
		c0-7.716,2.433-14.244,7.36-19.586c4.867-5.341,10.682-8.012,17.45-8.012c4.748,0,8.665,1.483,11.749,4.332
		c3.087,2.909,4.633,6.588,4.633,11.04c0,3.086-0.716,5.578-2.196,7.419c-1.427,1.84-3.268,2.729-5.521,2.729
		c-1.959,0-3.562-0.652-4.928-1.958c-1.305-1.306-2.017-2.908-2.017-4.808c0-3.62,1.305-5.876,3.857-6.707
		c2.551-0.83,4.216-1.365,4.928-1.602c0.412-0.238,0.593-0.595,0.593-1.068c0-1.426-1.067-2.968-3.324-4.57
		c-2.196-1.604-4.749-2.435-7.655-2.435c-9.677,0-14.543,8.132-14.543,24.453c0,8.725,1.186,15.136,3.562,19.23
		c2.315,4.095,6.172,6.173,11.455,6.173c3.975,0,7.479-1.425,10.388-4.333c2.965-2.849,4.686-6.706,5.222-11.514H224.443z
		 M241.12,0.393L241.12,0.393h-18.574v2.553c4.036,0,6.645,0.83,7.713,2.493c1.071,1.661,1.664,4.925,1.664,9.853v56.443
		c0,2.434-0.355,3.917-0.949,4.57c-0.653,0.651-2.257,0.95-4.869,0.95h-3.559v2.551h27.42v-2.551h-3.382
		c-2.319,0-3.799-0.299-4.454-1.01c-0.711-0.713-1.01-2.196-1.01-4.511V0.393z"/>
	<path fill-rule="evenodd" clip-rule="evenodd" fill="#A6CC4D" d="M46.743,37.844c-2.018-0.652-4.272-1.009-6.528-1.009
		c-11.574,0-20.951,9.081-20.951,20.357c0,11.219,9.377,20.3,20.951,20.3c9.794,0,18.043-6.411,20.357-15.195
		c-1.721,11.158-10.563,20.121-24.749,19.587c0,0-12.999,0.178-21.961-13.177C9.945,63.069,7.75,56.185,7.75,48.943
		c0-19.408,16.262-34.603,36.145-35.077c24.097-0.238,42.497,18.933,42.497,41.902c0,23.147-19.35,41.902-43.149,41.902
		c-23.859,0-43.208-18.755-43.208-41.902c0-6.351,1.483-12.346,4.035-17.747c-1.01,3.265-1.899,7.953-2.137,11.871
		c-1.483,24.69,21.13,40.894,40.419,39.353C61.759,87.698,77.31,73.989,77.31,55.769c0-13.473-8.25-24.987-20.12-30.21
		c-3.798-1.544-8.012-2.434-12.404-2.434c-17.45,0-31.575,13.71-31.575,30.625c0,1.128-0.06,1.781,0.119,3.383
		c0.89-11.929,11.158-21.307,23.681-21.307C40.511,35.826,43.776,36.538,46.743,37.844L46.743,37.844z"/>
	<path fill-rule="evenodd" clip-rule="evenodd" fill="#006433" d="M43.302,47.103c4.866,0,8.843,3.858,8.843,8.666
		c0,4.748-3.977,8.605-8.843,8.605c-4.927,0-8.903-3.857-8.903-8.605C34.398,50.961,38.375,47.103,43.302,47.103L43.302,47.103z"/>
</g>
</svg>
